<svg width="82" height="94" viewBox="0 0 82 94" fill="none" xmlns="http://www.w3.org/2000/svg">
<g opacity="0.4" clip-path="url(#clip0)">
<path d="M41 0C38.7457 0.282707 32.8282 1.83759 25.5017 4.66466C18.1753 7.49173 10.9897 8.4812 4.93127 10.0361C-0.986259 11.591 -4.65194e-06 18.8 -4.65194e-06 18.8C-4.65194e-06 18.8 2.25429 47.9188 3.09965 52.7248C7.46735 75.6241 40.2955 94 40.2955 94C40.2955 94 73.8282 76.1895 78.3368 52.8662C79.323 47.9188 81.5773 18.2346 81.5773 18.2346C81.5773 18.2346 82.7045 10.8842 76.5052 9.47068C70.3058 8.05714 62.8385 7.06767 55.3711 4.38195C48.1856 1.69624 43.2543 0.141353 41 0ZM52.835 10.7429C58.6117 12.8632 64.1065 13.8526 69.0378 14.8421C69.0378 14.8421 73.5464 15.9729 74.2509 16.1143C74.2509 16.1143 74.3917 16.1143 74.3917 17.3865C74.3917 17.5278 74.3917 17.6692 74.3917 17.8105C73.5464 29.1188 71.8557 48.3429 71.1512 51.7353C69.1787 61.7714 60.1615 71.1008 52.9759 77.0376C48.1856 80.9955 43.5361 84.1053 40.4364 86.0842C37.4777 84.1053 32.8282 80.9955 28.1787 77.0376C21.134 70.818 12.2577 61.4887 10.2852 51.4526C9.72164 48.2015 8.03092 29.4015 7.18556 18.2346C7.18556 17.9519 7.18556 17.9519 7.18556 17.8105C7.18556 17.3865 7.18556 16.8211 7.32646 16.397C8.87628 15.9729 10.567 15.6902 12.3986 15.2662C17.189 14.2767 22.543 13.1459 28.1787 10.8842C34.5189 8.4812 39.0275 7.20902 40.8591 6.78496C42.1271 7.20902 45.2268 7.91579 52.835 10.7429Z" fill="#4D4E50"/>
<path d="M40.8591 9.4707C39.1684 9.61206 34.8007 10.8842 29.4468 13.1459C23.9519 15.4075 18.598 16.1143 14.2303 17.3865C9.72167 18.6587 10.567 24.3128 10.567 24.3128C10.567 24.3128 12.2577 47.2121 12.9622 50.8872C16.2028 68.8391 40.5773 83.2572 40.5773 83.2572C40.5773 83.2572 65.3746 69.2632 68.6151 51.0286C69.3196 47.2121 71.0103 23.8887 71.0103 23.8887C71.0103 23.8887 71.8557 18.0933 67.2062 16.9624C62.5567 15.8316 57.2028 15.1248 51.567 13.0045C46.2131 10.7429 42.5498 9.61206 40.8591 9.4707Z" fill="#4D4E50"/>
</g>
<defs>
<clipPath id="clip0">
<rect width="82" height="94" fill="white"/>
</clipPath>
</defs>
</svg>
