<svg width="75" height="75" viewBox="0 0 75 75" fill="none" xmlns="http://www.w3.org/2000/svg">
<g opacity="0.4" clip-path="url(#clip0)">
<path d="M5 25.3001C3.7 25.0001 2.2 25.4001 1.2 26.4001C-0.4 28.0001 -0.4 30.6001 1.2 32.2001C1.2 32.2001 1.2 32.2001 1.3 32.2001L8.9 40.0001L21 27.9001L5 25.3001Z" fill="#4D4E50"/>
<path d="M49.3 69.2C49.3 69.2 49.4 69.2 49.3 69.2L46.9 53.8L34.9 65.9001L42.3 73.3001C42.4 73.4001 42.5 73.6 42.6 73.7C44.2 75.3 46.8 75.3 48.4 73.7C49.6 72.4 49.9 70.7 49.3 69.2Z" fill="#4D4E50"/>
<path d="M35.6 42.6L32.2 39.2001C31.6 38.6001 30.9 38.3 30.1 38.3C29.3 38.3 28.6 38.6001 28 39.2001L21.8 45.4001L20.9 46.3C20.3 46.9 20 47.6001 20 48.4001C20 49.2001 20.3 49.9 20.9 50.5L24.3 53.9001C24.9 54.5001 25.6 54.8 26.4 54.8C27.2 54.8 27.9 54.5001 28.5 53.9001L35.6 46.8C36.2 46.2 36.5 45.5001 36.5 44.7001C36.4 43.9001 36.2 43.2 35.6 42.6Z" fill="#4D4E50"/>
<path d="M65.8 31.9L74.6 5.70003C74.7 5.40003 74.8 5.10003 74.9 4.80003C75.1 3.50003 74.8 2.20003 73.8 1.20003C72.8 0.200034 71.4 -0.199966 70.1 0.200034C69.9 0.300034 69.7 0.300034 69.5 0.400034L43.9 8.70003C43 8.90003 42.1 9.30003 41.4 10L23.3 28.2L10.2 41.2L8 43.4C6.1 45.3 6.1 48.5 8 50.4L11 53.4L10.2 54.9L19.8 64.5L21.3 63.7L24.4 66.8C26.3 68.7 29.5 68.7 31.4 66.8L33.6 64.6L46.6 51.6L64.8 33.4C65.3 32.9 65.6 32.4 65.8 31.9ZM29.3 54.8C27.7 56.4 25 56.5 23.3 54.8L20 51.5C18.3 49.8 18.4 47.2 20 45.5L20.9 44.6L27.1 38.4C28.7 36.8 31.4 36.8 33.1 38.4L36.5 41.8C38.2 43.5 38.1 46.1 36.5 47.8L29.3 54.8ZM42.1 32.7C39.1 29.7 39.1 24.9 42.1 21.9C45.1 18.9 49.9 18.9 52.9 21.9C55.9 24.9 55.9 29.7 52.9 32.7C49.9 35.7 45.1 35.7 42.1 32.7Z" fill="#4D4E50"/>
</g>
<defs>
<clipPath id="clip0">
<rect width="75" height="74.8" fill="white"/>
</clipPath>
</defs>
</svg>
